<svg xmlns="http://www.w3.org/2000/svg" xmlns:xlink="http://www.w3.org/1999/xlink" fill="none" version="1.1" width="16" height="16" viewBox="0 0 16 16"><clipPath id="master_svg0_168_09697/204_38152"><rect x="0" y="0" width="16" height="16" rx="0"/></clipPath><g clip-path="url(#master_svg0_168_09697/204_38152)" style="mix-blend-mode:passthrough"><g><g style="mix-blend-mode:passthrough"><path d="M13.4286,12.569225C13.4286,12.569225,13,12.569225,13,12.569225C13,12.569225,13,6.497785,13,6.497785C13,3.978125,11.13751,1.895985,8.714269999999999,1.549555C8.714269999999999,1.549555,8.714269999999999,0.854909,8.714269999999999,0.854909C8.714269999999999,0.460268,8.39462,0.140625,8,0.140625C7.60538,0.140625,7.28573,0.460268,7.28573,0.854909C7.28573,0.854909,7.28573,1.549555,7.28573,1.549555C4.8625,1.895985,3,3.978125,3,6.497785C3,6.497785,3,12.569225,3,12.569225C3,12.569225,2.571427,12.569225,2.571427,12.569225C2.255357,12.569225,2,12.824525,2,13.140625C2,13.140625,2,13.712025,2,13.712025C2,13.790625,2.0642858,13.854925,2.1428570000000002,13.854925C2.1428570000000002,13.854925,6,13.854925,6,13.854925C6,14.958525,6.89644,15.854925,8,15.854925C9.10356,15.854925,10,14.958525,10,13.854925C10,13.854925,13.8572,13.854925,13.8572,13.854925C13.9357,13.854925,14,13.790625,14,13.712025C14,13.712025,14,13.140625,14,13.140625C14,12.824525,13.7446,12.569225,13.4286,12.569225C13.4286,12.569225,13.4286,12.569225,13.4286,12.569225ZM8,14.712025C7.5268,14.712025,7.14284,14.328125,7.14284,13.854925C7.14284,13.854925,8.85716,13.854925,8.85716,13.854925C8.85716,14.328125,8.4732,14.712025,8,14.712025C8,14.712025,8,14.712025,8,14.712025ZM4.2857199999999995,12.569225C4.2857199999999995,12.569225,4.2857199999999995,6.497785,4.2857199999999995,6.497785C4.2857199999999995,5.504895,4.67143,4.572765,5.37321,3.870985C6.075,3.169195,7.00716,2.783485,8,2.783485C8.992840000000001,2.783485,9.92502,3.169195,10.6268,3.870985C11.32858,4.572765,11.71427,5.504895,11.71427,6.497785C11.71427,6.497785,11.71427,12.569225,11.71427,12.569225C11.71427,12.569225,4.2857199999999995,12.569225,4.2857199999999995,12.569225C4.2857199999999995,12.569225,4.2857199999999995,12.569225,4.2857199999999995,12.569225Z" fill="#000000" fill-opacity="0.8500000238418579"/></g></g></g></svg>